<svg width="123" height="118" viewBox="0 0 123 118" fill="none" xmlns="http://www.w3.org/2000/svg">
<g filter="url(#filter0_d_121_0)">
<path fill-rule="evenodd" clip-rule="evenodd" d="M4 64.9754C4 64.6172 4.06747 64.2688 4.19327 63.9458L4.44939 63.4429C4.69931 63.0536 5.04488 62.7248 5.46414 62.4939L31.1402 48.3499C31.987 47.8834 33.013 47.8834 33.8598 48.3499L59.5359 62.4939C59.8583 62.6715 60.1371 62.9069 60.3623 63.1832L60.6748 63.6562C60.8848 64.0561 61 64.5073 61 64.9754V93.0246C61 94.0577 60.4389 95.0087 59.5359 95.5061L33.8598 109.65C33.013 110.117 31.987 110.117 31.1402 109.65L5.46414 95.5061C4.56113 95.0087 4 94.0577 4 93.0246V64.9754ZM33.5878 48.8462L59.2639 62.9902C59.4873 63.1132 59.6845 63.271 59.8504 63.4546L32.161 78.1357L4.95096 63.7088C5.14852 63.4151 5.41535 63.1669 5.73609 62.9902L31.4122 48.8462C32.0896 48.473 32.9104 48.473 33.5878 48.8462ZM32.4603 78.6157L32.7607 109.439C34.6947 108.305 32.3115 109.687 32.7607 109.439L59.2639 95.0098C59.9863 94.6119 60.4352 93.8511 60.4352 93.0246V64.9754C60.4352 64.6013 60.3432 64.2406 60.1755 63.921L32.4603 78.6157ZM32.2388 109.439L31.8953 78.6335L4.69665 64.2127C4.61065 64.4538 4.56479 64.7112 4.56479 64.9754V93.0246C4.56479 93.8511 5.01369 94.6119 5.7361 95.0098L31.4122 109.154C31.4646 109.183 32.1848 109.415 32.2388 109.439Z" fill="#26A69A"/>
</g>
<g filter="url(#filter1_d_121_0)">
<path fill-rule="evenodd" clip-rule="evenodd" d="M34 16.9754C34 16.6172 34.0663 16.2688 34.1899 15.9458L34.4415 15.4429C34.687 15.0536 35.0265 14.7248 35.4385 14.4939L60.6641 0.349865C61.496 -0.116622 62.504 -0.116622 63.3359 0.349865L88.5616 14.4939C88.8783 14.6715 89.1522 14.9069 89.3735 15.1832L89.6805 15.6562C89.8868 16.0561 90 16.5073 90 16.9754V45.0246C90 46.0577 89.4487 47.0087 88.5616 47.5061L63.3359 61.6501C62.504 62.1166 61.496 62.1166 60.6641 61.6501L35.4385 47.5061C34.5513 47.0087 34 46.0577 34 45.0246V16.9754ZM63.0687 0.846167L88.2944 14.9902C88.5138 15.1132 88.7076 15.271 88.8706 15.4546L61.6669 30.1357L34.9343 15.7088C35.1284 15.4151 35.3905 15.1669 35.7056 14.9902L60.9313 0.846167C61.5968 0.472977 62.4032 0.472977 63.0687 0.846167ZM61.961 30.6157L62.2562 61.4393C64.1562 60.3045 61.8148 61.6867 62.2562 61.4393L88.2944 47.0098C89.0041 46.6119 89.4451 45.8511 89.4451 45.0246V16.9754C89.4451 16.6013 89.3548 16.2406 89.19 15.921L61.961 30.6157ZM61.7433 61.4393L61.4059 30.6335L34.6844 16.2127C34.5999 16.4538 34.5549 16.7112 34.5549 16.9754V45.0246C34.5549 45.8511 34.9959 46.6119 35.7056 47.0098L60.9313 61.1538C60.9827 61.1827 61.6903 61.4149 61.7433 61.4393Z" fill="#364150"/>
</g>
<g filter="url(#filter2_d_121_0)">
<path fill-rule="evenodd" clip-rule="evenodd" d="M62 64.9754C62 64.6172 62.0675 64.2688 62.1933 63.9458L62.4494 63.4429C62.6993 63.0536 63.0449 62.7248 63.4641 62.4939L89.1402 48.3499C89.987 47.8834 91.013 47.8834 91.8598 48.3499L117.536 62.4939C117.858 62.6715 118.137 62.9069 118.362 63.1832L118.675 63.6562C118.885 64.0561 119 64.5073 119 64.9754V93.0246C119 94.0577 118.439 95.0087 117.536 95.5061L91.8598 109.65C91.013 110.117 89.987 110.117 89.1402 109.65L63.4641 95.5061C62.5611 95.0087 62 94.0577 62 93.0246V64.9754ZM91.5878 48.8462L117.264 62.9902C117.487 63.1132 117.685 63.271 117.85 63.4546L90.161 78.1357L62.951 63.7088C63.1485 63.4151 63.4154 63.1669 63.7361 62.9902L89.4122 48.8462C90.0896 48.473 90.9104 48.473 91.5878 48.8462ZM90.4603 78.6157L90.7607 109.439C92.6947 108.305 90.3115 109.687 90.7607 109.439L117.264 95.0098C117.986 94.6119 118.435 93.8511 118.435 93.0246V64.9754C118.435 64.6013 118.343 64.2406 118.176 63.921L90.4603 78.6157ZM90.2388 109.439L89.8953 78.6335L62.6967 64.2127C62.6107 64.4538 62.5648 64.7112 62.5648 64.9754V93.0246C62.5648 93.8511 63.0137 94.6119 63.7361 95.0098L89.4122 109.154C89.4646 109.183 90.1848 109.415 90.2388 109.439Z" fill="#364150"/>
</g>
<defs>
<filter id="filter0_d_121_0" x="0" y="48" width="65" height="70" filterUnits="userSpaceOnUse" color-interpolation-filters="sRGB">
<feFlood flood-opacity="0" result="BackgroundImageFix"/>
<feColorMatrix in="SourceAlpha" type="matrix" values="0 0 0 0 0 0 0 0 0 0 0 0 0 0 0 0 0 0 127 0" result="hardAlpha"/>
<feOffset dy="4"/>
<feGaussianBlur stdDeviation="2"/>
<feColorMatrix type="matrix" values="0 0 0 0 0 0 0 0 0 0 0 0 0 0 0 0 0 0 0.25 0"/>
<feBlend mode="normal" in2="BackgroundImageFix" result="effect1_dropShadow_121_0"/>
<feBlend mode="normal" in="SourceGraphic" in2="effect1_dropShadow_121_0" result="shape"/>
</filter>
<filter id="filter1_d_121_0" x="30" y="0" width="64" height="70" filterUnits="userSpaceOnUse" color-interpolation-filters="sRGB">
<feFlood flood-opacity="0" result="BackgroundImageFix"/>
<feColorMatrix in="SourceAlpha" type="matrix" values="0 0 0 0 0 0 0 0 0 0 0 0 0 0 0 0 0 0 127 0" result="hardAlpha"/>
<feOffset dy="4"/>
<feGaussianBlur stdDeviation="2"/>
<feColorMatrix type="matrix" values="0 0 0 0 0 0 0 0 0 0 0 0 0 0 0 0 0 0 0.25 0"/>
<feBlend mode="normal" in2="BackgroundImageFix" result="effect1_dropShadow_121_0"/>
<feBlend mode="normal" in="SourceGraphic" in2="effect1_dropShadow_121_0" result="shape"/>
</filter>
<filter id="filter2_d_121_0" x="58" y="48" width="65" height="70" filterUnits="userSpaceOnUse" color-interpolation-filters="sRGB">
<feFlood flood-opacity="0" result="BackgroundImageFix"/>
<feColorMatrix in="SourceAlpha" type="matrix" values="0 0 0 0 0 0 0 0 0 0 0 0 0 0 0 0 0 0 127 0" result="hardAlpha"/>
<feOffset dy="4"/>
<feGaussianBlur stdDeviation="2"/>
<feColorMatrix type="matrix" values="0 0 0 0 0 0 0 0 0 0 0 0 0 0 0 0 0 0 0.25 0"/>
<feBlend mode="normal" in2="BackgroundImageFix" result="effect1_dropShadow_121_0"/>
<feBlend mode="normal" in="SourceGraphic" in2="effect1_dropShadow_121_0" result="shape"/>
</filter>
</defs>
</svg>
