<svg width="16" height="20" viewBox="0 0 16 20" fill="none" xmlns="http://www.w3.org/2000/svg">
<path d="M1.6 19.2C1.6 19.2 0 19.2 0 17.6C0 16 1.6 11.2 8 11.2C14.4 11.2 16 16 16 17.6C16 19.2 14.4 19.2 14.4 19.2H1.6ZM8 9.6C9.27304 9.6 10.4939 9.09429 11.3941 8.19411C12.2943 7.29394 12.8 6.07304 12.8 4.8C12.8 3.52696 12.2943 2.30606 11.3941 1.40589C10.4939 0.505713 9.27304 0 8 0C6.72696 0 5.50606 0.505713 4.60589 1.40589C3.70571 2.30606 3.2 3.52696 3.2 4.8C3.2 6.07304 3.70571 7.29394 4.60589 8.19411C5.50606 9.09429 6.72696 9.6 8 9.6Z" fill="#364150" fill-opacity="0.6"/>
</svg>
